<?xml version="1.0" encoding="UTF-8"?>
<svg id="Layer_1" data-name="Layer 1" xmlns="http://www.w3.org/2000/svg" viewBox="0 0 110 110">
  <defs>
    <style>
      .cls-1 {
        fill-rule: evenodd;
      }
    </style>
  </defs>
  <path class="cls-1" d="M51.4,28.6l4.5,13.4c1.5,4.5,5.1,8.1,9.7,9.7l13.4,4.5c.8.2,1.3,1,1.3,1.7s-.5,1.5-1.3,1.7l-13.4,4.5c-4.5,1.5-8.1,5.1-9.7,9.7l-4.5,13.4c-.2.8-1,1.3-1.7,1.3s-1.5-.5-1.7-1.3l-4.5-13.4c-1.5-4.5-5.1-8.1-9.7-9.7l-13.4-4.5c-.8-.2-1.3-1-1.3-1.7s.5-1.5,1.3-1.7l13.4-4.5c4.5-1.5,8.1-5.1,9.7-9.7l4.5-13.4c.2-.8,1-1.3,1.7-1.3s1.5.5,1.7,1.3h0ZM80,24.6l1.1,3.2c1.1,3.2,3.6,5.7,6.8,6.8l3.2,1.1c.8.2,1.3,1,1.3,1.7s-.5,1.5-1.3,1.7l-3.2,1.1c-3.2,1.1-5.7,3.6-6.8,6.8l-1.1,3.2c-.2.8-1,1.3-1.7,1.3s-1.5-.5-1.7-1.3l-1.1-3.2c-1.1-3.2-3.6-5.7-6.8-6.8l-3.2-1.1c-.8-.2-1.3-1-1.3-1.7s.5-1.5,1.3-1.7l3.2-1.1c3.2-1.1,5.7-3.6,6.8-6.8l1.1-3.2c.2-.8,1-1.3,1.7-1.3s1.5.5,1.7,1.3Z"/>
</svg>